<?xml version="1.0" encoding="utf-8"?>
<!-- Generator: Adobe Illustrator 28.3.0, SVG Export Plug-In . SVG Version: 6.00 Build 0)  -->
<svg version="1.1" id="Layer_1" xmlns="http://www.w3.org/2000/svg" xmlns:xlink="http://www.w3.org/1999/xlink" x="0px" y="0px"
	 viewBox="0 0 892.4 164.7" style="enable-background:new 0 0 892.4 164.7;" xml:space="preserve">
<style type="text/css">
	.st0{fill:#FFFFFF;}
	.st1{fill:#39ACE7;}
	.st2{fill:#353535;}
</style>
<g>
	<path class="st0" d="M119.6,162h96.5c41.1,0,74.7-33.6,74.7-74.7v-4.8c0-40.8-33.4-74.1-74.1-74.1h-9.4c-4,0-7.8,2.2-9.7,5.7
		l-80.8,143.2C115.5,159.4,117.1,162,119.6,162z"/>
</g>
<g>
	<path class="st1" d="M89.4,162.6L0.5,6.1C-1,3.4,1,0,4.1,0h177.7c3.1,0,5.1,3.4,3.5,6.1L96.5,162.6
		C94.9,165.4,90.9,165.4,89.4,162.6z"/>
</g>
<path class="st0" d="M114.8,81.8L79.9,61.7l34.9-20.1c3.4-2,4.6-6.4,2.6-9.8L117,31c-2-3.4-6.4-4.6-9.8-2.6L61,55.1
	c-2.4,1.4-3.7,4-3.6,6.6c-0.1,2.6,1.2,5.2,3.6,6.6l46.2,26.7c3.4,2,7.8,0.8,9.8-2.6l0.4-0.7C119.4,88.2,118.2,83.8,114.8,81.8z"/>
<g>
	<path class="st2" d="M114.8,81.8L79.9,61.7l34.9-20.1c3.4-2,4.6-6.4,2.6-9.8L117,31c-2-3.4-6.4-4.6-9.8-2.6L61,55.1
		c-2.4,1.4-3.7,4-3.6,6.6c-0.1,2.6,1.2,5.2,3.6,6.6l46.2,26.7c3.4,2,7.8,0.8,9.8-2.6l0.4-0.7C119.4,88.2,118.2,83.8,114.8,81.8z"/>
</g>
<g>
	<path class="st2" d="M197.1,107.6L232,87.4l-34.9-20.1c-3.4-2-4.6-6.4-2.6-9.8l0.4-0.7c2-3.4,6.4-4.6,9.8-2.6l46.2,26.7
		c2.4,1.4,3.7,4,3.6,6.6c0.1,2.6-1.2,5.2-3.6,6.6l-46.2,26.7c-3.4,2-7.8,0.8-9.8-2.6l-0.4-0.7C192.5,113.9,193.7,109.5,197.1,107.6z
		"/>
</g>
<g>
	<g>
		<path class="st1" d="M372.4,47c-1.5,0-2.9,0.3-3.9,1c-1.1,0.7-1.9,1.8-2.6,3.4L344.4,102l-21.1-50.6c-1.2-2.8-3.5-4.3-6.6-4.3
			c-3.8,0-5.4,2.1-6,3.3c-1,2-0.9,4.4,0.2,7.2l27.1,62c1.3,2.9,3.6,4.4,6.5,4.4c1.6,0,2.9-0.4,4.1-1.2c1-0.8,1.9-1.9,2.5-3.2
			l27.4-62.8c1.3-2.9,0.7-5.1,0-6.5C377.6,48.8,375.9,47,372.4,47z"/>
	</g>
	<g>
		<path class="st1" d="M397.7,48.2c-2.3,0-4.3,0.8-6,2.5s-2.5,3.7-2.5,6c0,2.3,0.8,4.3,2.5,6c1.7,1.7,3.7,2.5,6,2.5s4.3-0.8,6-2.5
			c1.7-1.7,2.5-3.7,2.5-6c0-2.3-0.8-4.3-2.5-6C402,49.1,400,48.2,397.7,48.2z"/>
	</g>
	<g>
		<path class="st1" d="M397.7,68.7c-2,0-3.7,0.7-5,2c-1.4,1.3-2.1,3.1-2.1,5.1v41.2c0,2,0.7,3.7,2,5.1c1.3,1.3,3.1,2,5.1,2
			c2,0,3.8-0.7,5.1-2.1c1.3-1.3,2-3.1,2-5V75.8c0-2-0.7-3.8-2-5.1C401.5,69.3,399.7,68.7,397.7,68.7z"/>
	</g>
	<g>
		<path class="st1" d="M456.9,93.3c-2.9-1.5-6.8-2.8-11.6-3.7c-3.2-0.6-5.6-1.3-7.2-1.9c-1.8-0.7-2.3-1.3-2.4-1.5
			c-0.3-0.5-0.5-1.1-0.5-1.7c0-0.6,0.2-1.3,1.5-1.9c1.5-0.8,3.5-1.1,5.8-1.1c2.1,0,3.9,0.2,5.5,0.7c1.4,0.4,2.8,1.3,4.1,2.5
			c1.3,1.2,2.8,1.9,4.6,2.3c2,0.4,3.8,0,5.3-1l0.1-0.1c1.5-1.2,2.4-2.7,2.5-4.5c0.1-1.7-0.5-3.3-1.8-4.8c-2.1-2.6-4.9-4.6-8.4-6
			c-3.4-1.4-7.4-2.1-11.7-2.1c-3.4,0-6.7,0.6-9.9,1.7c-3.3,1.2-6,2.9-8.1,5.3c-2.2,2.5-3.4,5.7-3.4,9.4c0,4.3,1.7,7.9,5,10.9
			c3.2,2.8,8,4.8,14.7,6.1c5.5,1,7.9,2.1,8.9,2.9c1.5,1.2,1.7,2.2,1.7,2.8c0,0.7-0.2,1.6-1.8,2.6c-1.5,0.9-3.8,1.4-6.9,1.4
			c-2.5,0-4.8-0.4-6.8-1.3c-2.5-1.1-3.7-2.1-4.3-2.7c-1.2-1.3-2.8-2.1-4.5-2.4c-1.9-0.2-3.7,0.3-5.4,1.7c-1.5,1.2-2.5,2.8-2.7,4.7
			c-0.2,2,0.4,3.8,1.8,5.3l0,0.1c2.3,2.3,5.5,4.2,9.4,5.6c3.9,1.4,8.2,2.1,12.8,2.1c4.7,0,8.7-0.8,12-2.3c3.3-1.5,5.9-3.7,7.6-6.3
			c1.8-2.7,2.7-5.7,2.7-9c0-2.9-0.7-5.5-2.1-7.8C462.2,96.8,460,94.9,456.9,93.3z"/>
	</g>
</g>
<g>
	<g>
		<path class="st0" d="M530.3,57.8c-3.4-3.5-7.5-6.2-12.1-8c-4.6-1.9-9.8-2.8-15.4-2.8h-16.7c-2,0-3.7,0.7-5.1,2
			c-1.4,1.3-2.1,3.1-2.1,5.2v62.6c0,2,0.7,3.8,2.1,5.1c1.4,1.4,3.1,2.1,5.1,2.1h16.7c5.6,0,10.8-0.9,15.4-2.8
			c4.6-1.9,8.7-4.6,12.1-8c3.4-3.4,6.1-7.6,7.9-12.3c1.8-4.7,2.8-9.9,2.8-15.4s-0.9-10.8-2.8-15.4C536.4,65.4,533.8,61.3,530.3,57.8
			z M527,85.5c0,4.9-1,9.4-3.1,13.1c-2.1,3.8-4.9,6.8-8.5,8.9c-3.6,2.1-7.8,3.2-12.5,3.2h-9.5V60.3h9.5c4.7,0,8.9,1.1,12.5,3.2
			c3.6,2.1,6.5,5.1,8.5,8.8C525.9,76.1,527,80.5,527,85.5z"/>
	</g>
	<g>
		<path class="st0" d="M605.2,89.8c-0.5-3-1.3-5.7-2.5-8.2c-2-4.1-5-7.4-8.8-9.8c-3.8-2.3-8.4-3.6-13.7-3.6c-5.3,0-10,1.2-14.2,3.6
			c-4.1,2.4-7.4,5.8-9.7,10c-2.3,4.2-3.5,9.1-3.5,14.5c0,5.4,1.2,10.3,3.7,14.5c2.5,4.2,5.9,7.6,10.2,9.9c4.3,2.4,9.3,3.6,14.8,3.6
			c3.1,0,6.3-0.6,9.7-1.7c3.4-1.1,6.2-2.6,8.5-4.4c2.1-1.6,2.5-3.6,2.4-4.9c-0.1-1.8-0.9-3.3-2.5-4.7c-1.2-1.1-2.8-1.6-4.4-1.5
			c-1.6,0.1-3,0.6-4.4,1.5c-1,0.8-2.5,1.5-4.2,2.1c-1.7,0.6-3.5,0.9-5.1,0.9c-3.1,0-5.8-0.7-8.2-2c-2.4-1.3-4.2-3.1-5.5-5.4
			c-0.4-0.7-0.8-1.5-1-2.2H599c1.8,0,3.5-0.6,4.7-1.8c1.3-1.2,1.9-2.8,1.9-4.6c0-1.7-0.1-3.4-0.3-4.9l1.1-0.8L605.2,89.8L605.2,89.8
			z M567.7,88.3c1.1-2.3,2.7-4,4.8-5.3c2.1-1.3,4.7-2,7.8-2c2.6,0,4.8,0.6,6.5,1.7c1.8,1.2,3.2,2.8,4.2,4.8c0.3,0.7,0.6,1.5,0.9,2.3
			H567C567.2,89.3,567.5,88.8,567.7,88.3z"/>
	</g>
	<g>
		<path class="st0" d="M660.3,69.5c-1.7-0.8-3.5-0.9-5.2-0.4c-1.7,0.6-3.1,1.7-3.9,3.3l-13.8,30.1l-13.9-30l-0.1-0.1
			c-0.8-1.6-2.1-2.7-3.8-3.3c-1.7-0.6-3.4-0.4-5,0.4c-1.7,0.8-2.9,2-3.5,3.6c-0.6,1.6-0.6,3.3,0.2,5l19.6,41.3l0,0.1
			c1.8,3.6,4.6,4.3,6.6,4.3c2.8,0,5.1-1.6,6.4-4.4l19.6-41.3c0.8-1.6,0.8-3.3,0.3-5C663.2,71.6,662,70.3,660.3,69.5z"/>
	</g>
	<g>
		<path class="st0" d="M723.5,89.8c-0.5-3-1.3-5.7-2.5-8.2c-2-4.1-5-7.4-8.8-9.8c-3.8-2.3-8.4-3.6-13.7-3.6c-5.3,0-10,1.2-14.2,3.6
			c-4.1,2.4-7.4,5.8-9.7,10c-2.3,4.2-3.5,9.1-3.5,14.5c0,5.4,1.2,10.3,3.7,14.5c2.5,4.2,5.9,7.6,10.2,9.9c4.3,2.4,9.3,3.6,14.8,3.6
			c3.1,0,6.3-0.6,9.7-1.7c3.4-1.1,6.2-2.6,8.5-4.4c2.1-1.6,2.5-3.6,2.4-4.9c-0.1-1.8-0.9-3.3-2.5-4.7c-1.2-1.1-2.8-1.6-4.4-1.5
			c-1.6,0.1-3,0.6-4.4,1.5c-1,0.8-2.5,1.5-4.2,2.1c-1.7,0.6-3.5,0.9-5.1,0.9c-3.1,0-5.8-0.7-8.2-2c-2.4-1.3-4.2-3.1-5.5-5.4
			c-0.4-0.7-0.8-1.5-1-2.2h32.1c1.8,0,3.5-0.6,4.7-1.8c1.3-1.2,1.9-2.8,1.9-4.6c0-1.7-0.1-3.4-0.3-4.9l1.1-0.8L723.5,89.8
			L723.5,89.8z M686,88.3c1.1-2.3,2.7-4,4.8-5.3c2.1-1.3,4.7-2,7.8-2c2.6,0,4.8,0.6,6.5,1.7c1.8,1.2,3.2,2.8,4.2,4.8
			c0.3,0.7,0.6,1.5,0.9,2.3h-24.8C685.5,89.3,685.8,88.8,686,88.3z"/>
	</g>
	<g>
		<path class="st0" d="M753,110h-2.3c-0.2,0-0.7,0-1.3-1c-0.6-1.1-1-2.6-1-4.4V54c0-2-0.7-3.7-2-5c-1.3-1.3-3-2-5-2
			c-2,0-3.7,0.7-5,2c-1.3,1.3-2,3-2,5v50.5c0,3.7,0.7,7,2,9.8c1.3,2.9,3.3,5.3,5.7,7c2.5,1.8,5.4,2.7,8.6,2.7h0.2
			c2.4,0,4.4-0.6,6-1.8c1.8-1.3,2.7-3.1,2.7-5.2c0-1.9-0.6-3.6-1.8-4.9C756.6,110.7,754.9,110,753,110z"/>
	</g>
	<g>
		<path class="st0" d="M808.8,71.9c-4.2-2.4-9-3.6-14.3-3.6c-5.4,0-10.2,1.2-14.4,3.6c-4.2,2.4-7.5,5.7-9.9,10
			c-2.4,4.2-3.6,9.1-3.6,14.5c0,5.4,1.2,10.2,3.6,14.4c2.4,4.2,5.7,7.6,9.9,10c4.2,2.4,9,3.6,14.4,3.6c5.4,0,10.2-1.2,14.4-3.6
			c4.2-2.4,7.5-5.8,9.9-10c2.3-4.2,3.5-9.1,3.5-14.4c0-5.4-1.2-10.3-3.6-14.6C816.3,77.6,813,74.3,808.8,71.9z M794.5,111.3
			c-2.8,0-5.2-0.6-7.3-1.9c-2.1-1.3-3.7-3-5-5.2c-1.2-2.2-1.8-4.8-1.8-7.8s0.6-5.6,1.8-7.9c1.2-2.3,2.8-4,5-5.2
			c2.1-1.3,4.5-1.9,7.3-1.9c2.8,0,5.2,0.6,7.3,1.9c2.1,1.3,3.7,3,4.9,5.2c1.2,2.3,1.8,4.9,1.8,7.9s-0.6,5.6-1.8,7.8
			c-1.2,2.2-2.8,3.9-4.9,5.2C799.6,110.7,797.3,111.3,794.5,111.3z"/>
	</g>
	<g>
		<path class="st0" d="M888.7,82.1c-2.5-4.2-5.8-7.6-10-10.1c-4.2-2.5-9-3.7-14.2-3.7c-5.2,0-10,1.2-14.2,3.7
			c-4.2,2.4-7.5,5.8-9.9,10.1c-2.4,4.2-3.7,9-3.7,14.3v42.2c0,2,0.7,3.7,2,5.1c1.3,1.3,3.1,2,5.1,2c2,0,3.8-0.7,5.1-2.1
			c1.3-1.3,2-3.1,2-5v-19.4c1.3,1,2.8,1.9,4.4,2.7c3.4,1.7,7.1,2.5,11.1,2.5c4.9,0,9.4-1.3,13.4-3.7c3.9-2.5,7-5.8,9.3-10.1
			c2.2-4.2,3.4-9,3.4-14.2C892.4,91.1,891.2,86.3,888.7,82.1z M864.5,81.4c2.7,0,5.1,0.6,7.2,1.9c2.1,1.3,3.8,3,5,5.3
			c1.2,2.2,1.9,4.9,1.9,7.8c0,2.8-0.6,5.4-1.9,7.7c-1.3,2.3-2.9,4-5,5.3c-2.1,1.3-4.5,1.9-7.2,1.9c-2.7,0-5-0.6-7.1-1.9
			c-2.2-1.3-3.8-3-5-5.3c-1.2-2.2-1.8-4.8-1.8-7.7c0-2.9,0.6-5.5,1.8-7.8c1.2-2.3,2.9-4,5-5.3C859.5,82,861.8,81.4,864.5,81.4z"/>
	</g>
</g>
</svg>
